<?xml version="1.0" encoding="UTF-8"?><svg id="Layer_1" xmlns="http://www.w3.org/2000/svg" viewBox="0 0 951.06 757.71"><defs><style>.cls-1{letter-spacing:-.03em;}.cls-2{letter-spacing:-.11em;}.cls-3{letter-spacing:-.01em;}.cls-4{letter-spacing:0em;}.cls-5,.cls-6{fill:#fff;}.cls-7{letter-spacing:0em;}.cls-8{letter-spacing:-.03em;}.cls-9{letter-spacing:-.03em;}.cls-10{letter-spacing:-.02em;}.cls-11{letter-spacing:-.01em;}.cls-12{font-size:21.02px;}.cls-12,.cls-13,.cls-14,.cls-15,.cls-16,.cls-17,.cls-18,.cls-19,.cls-20,.cls-21,.cls-22,.cls-23{isolation:isolate;}.cls-12,.cls-13,.cls-15,.cls-16,.cls-17,.cls-18,.cls-19,.cls-20,.cls-21,.cls-22,.cls-23{fill:#4d4d4d;font-family:Raleway-Regular, Raleway;}.cls-24{letter-spacing:-.02em;}.cls-25{letter-spacing:0em;}.cls-26{letter-spacing:0em;}.cls-27{letter-spacing:-.02em;}.cls-13{font-size:20.9px;}.cls-28{letter-spacing:0em;}.cls-29{letter-spacing:-.03em;}.cls-30{letter-spacing:0em;}.cls-31{letter-spacing:-.01em;}.cls-32{letter-spacing:-.02em;}.cls-33{letter-spacing:-.11em;}.cls-15{font-size:22px;}.cls-34{letter-spacing:-.01em;}.cls-35{fill:#22b37f;}.cls-16{font-size:18.29px;}.cls-17{font-size:18.7px;}.cls-18{font-size:12.08px;}.cls-19{font-size:20.75px;}.cls-36{letter-spacing:-.01em;}.cls-20{font-size:19.56px;}.cls-37{fill:none;}.cls-37,.cls-6{stroke:#4d4d4d;stroke-miterlimit:10;}.cls-38{letter-spacing:0em;}.cls-39{letter-spacing:0em;}.cls-40{letter-spacing:0em;}.cls-41{letter-spacing:0em;}.cls-21{font-size:20.27px;}.cls-42{letter-spacing:-.03em;}.cls-43{letter-spacing:-.02em;}.cls-22{font-size:19.44px;}.cls-44{fill:#57be92;}.cls-45{letter-spacing:0em;}.cls-46{letter-spacing:0em;}.cls-47{letter-spacing:-.03em;}.cls-23{font-size:26.86px;}.cls-48{letter-spacing:0em;}</style></defs><path class="cls-6" d="M903.24,.6c-29.29,7.16-58.58,14.32-87.7,21.48,15.13,55.81,30.26,111.46,45.4,167.27,29.78-7,59.72-14.16,89.49-21.15-15.78-55.81-31.4-111.78-47.19-167.6Z"/><path class="cls-6" d="M758.43,213.76c-14.64-55.81-29.29-111.78-43.93-167.6l100.88-24.41,.16,.33c15.13,55.81,30.26,111.46,45.4,167.27l-102.51,24.41Z"/><path class="cls-6" d="M436.26,112.87c8.14,29.78,16.27,59.72,24.41,89.49l-146.44,39.05c-11.88-29.29-23.92-58.58-35.8-87.87,52.56-13.51,105.28-27.17,157.83-40.68Z"/><path class="cls-6" d="M145,197.48c12.53,27.66,24.9,55.32,37.42,82.98l131.8-39.05c-11.88-29.29-23.92-58.58-35.8-87.87-44.42,14.64-89,29.29-133.43,43.93Z"/><path class="cls-6" d="M398.83,438.3c-7,22.29-14.16,44.42-21.15,66.71l-141.56-24.41c-4.56-.81-27.17-5.53-40.19-26.2-9.27-14.81-8.3-30.1-8.3-36.77,0,0,.65-15.3,8.3-30.1,15.78-30.43,63.46-44.58,110.65-57.93,55.32-15.78,98.28-27.66,123.01-34.33,2.77,25.55,5.37,50.93,8.14,76.48-21.15,4.39-42.31,8.95-63.62,13.34-.65,11.72-.81,24.08-.33,36.77,.16,3.42,.16,6.67,.33,10.09,8.46,2.12,16.6,4.23,24.73,6.35Z"/><path class="cls-6" d="M429.75,295.11c2.77,25.55,5.37,50.93,8.14,76.48,29.29-6.02,58.58-11.88,87.87-17.9-3.25-26.52-6.51-53.21-9.76-79.73-28.8,7-57.44,14.16-86.24,21.15Z"/><path class="cls-6" d="M472.87,364.27c-2.77,29.94-5.53,59.72-8.3,89.66"/><path class="cls-6" d="M476.93,456.2c-26.03-6.02-52.07-11.88-78.1-17.9-7,22.29-14.16,44.42-21.15,66.71,26.03,6.02,52.07,11.88,78.1,17.9,7-22.29,14.16-44.42,21.15-66.71Z"/><path class="cls-37" d="M626.63,757.22c-165.48-35.8-330.8-71.59-496.28-107.39-23.92-12.04-68.5-39.05-99.26-91.12-69.64-117.97,.81-248.14,4.88-255.46,33.03-58.58,80.71-90.47,108.04-105.6"/><path class="cls-6" d="M546.25,739.97c10.58-30.59,21.15-61.18,31.57-91.77-39.05-8.62-78.1-17.41-117.15-26.03-12.2,30.26-24.41,60.53-36.61,90.79l122.2,27.01Z"/><path class="cls-6" d="M286.56,682.37c13.02-30.43,26.03-60.69,39.05-91.12,45.07,10.25,89.98,20.66,135.05,30.92l-36.61,90.79c-45.72-10.25-91.61-20.34-137.49-30.59Z"/><path class="cls-6" d="M630.37,493.79c-8.3,23.27-16.6,46.54-24.9,69.8,25.55,6.02,50.93,11.88,76.48,17.9,7.65-23.27,15.13-46.7,22.78-69.97-24.73-5.86-49.47-11.88-74.36-17.74Z"/><path class="cls-6" d="M556.66,475.73c-6.51,22.29-13.02,44.42-19.53,66.71-27.17-6.51-54.18-13.02-81.36-19.53,7-22.29,14.16-44.42,21.15-66.71,26.52,6.51,53.21,13.02,79.73,19.53Z"/><text class="cls-13" transform="translate(492.63 726.79) rotate(-73.96)"><tspan x="0" y="0">Do</tspan><tspan class="cls-11" x="27.38" y="0">n</tspan><tspan x="39.31" y="0">viand</tspan></text><text class="cls-15" transform="translate(428.97 511.63) rotate(-73.96)"><tspan x="0" y="0">Lluvia</tspan></text><g class="cls-14" transform="matrix(-0.1439 -0.9896 0.9896 -0.1439 297.4807 584.1442)"><text class="cls-17" transform="translate(478.53 361.24) rotate(-98.27)"><tspan x="0" y="0">Chumak</tspan></text><text class="cls-17" transform="translate(493.93 354.08) rotate(-98.27)"><tspan class="cls-48" x="0" y="0">f</tspan><tspan x="6.02" y="0">ashion</tspan></text></g><g class="cls-14" transform="matrix(-0.2474 -0.9689 0.9689 -0.2474 492.6307 471.3041)"><text class="cls-23" transform="translate(796.07 177.64) rotate(-104.32)"><tspan x="0" y="0">E</tspan><tspan class="cls-43" x="16.36" y="0">x</tspan><tspan x="29.3" y="0">clusi</tspan><tspan class="cls-32" x="86.23" y="0">v</tspan><tspan class="cls-30" x="100.06" y="0">e</tspan></text><text class="cls-23" transform="translate(813.01 149.3) rotate(-104.32)"><tspan x="0" y="0">t</tspan><tspan class="cls-28" x="9" y="0">r</tspan><tspan class="cls-31" x="18.24" y="0">a</tspan><tspan class="cls-27" x="32.5" y="0">v</tspan><tspan x="46.33" y="0">e</tspan><tspan class="cls-8" x="62.09" y="0">l</tspan></text></g><g class="cls-14" transform="matrix(-0.2474 -0.9689 0.9689 -0.2474 544.251 434.235)"><text class="cls-23" transform="translate(880.06 117.32) rotate(-104.32)"><tspan x="0" y="0">Li</tspan><tspan class="cls-1" x="21.51" y="0">f</tspan><tspan x="29.67" y="0">e</tspan></text><text class="cls-23" transform="translate(909.65 138.49) rotate(-104.32)"><tspan class="cls-36" x="0" y="0">t</tspan><tspan x="8.65" y="0">eıe</tspan><tspan class="cls-39" x="46.03" y="0">c</tspan><tspan x="60.64" y="0">om</tspan></text></g><g class="cls-14" transform="matrix(-0.335 -1.0435 0.9521 -0.3057 152.2294 522.3358)"><text class="cls-19" transform="translate(242.19 260.67) rotate(-107.8) scale(1.1 1)"><tspan x="0" y="0">Exp</tspan><tspan class="cls-47" x="35.9" y="0">r</tspan><tspan x="42.64" y="0">ess </tspan></text><text class="cls-19" transform="translate(264.33 256.19) rotate(-107.8) scale(1.1 1)"><tspan class="cls-33" x="0" y="0">T</tspan><tspan x="10.29" y="0">ele</tspan><tspan class="cls-25" x="40.3" y="0">c</tspan><tspan x="51.59" y="0">om</tspan></text></g><g class="cls-14" transform="matrix(-0.2732 -1.0614 0.9684 -0.2493 232.0175 501.2079)"><text class="cls-12" transform="translate(372.01 226.3) rotate(-104.43) scale(1.1 1)"><tspan class="cls-2" x="0" y="0">T</tspan><tspan class="cls-29" x="10.51" y="0">r</tspan><tspan x="17.35" y="0">end </tspan><tspan class="cls-24" x="60.38" y="0">3</tspan><tspan x="71.23" y="0">7</tspan></text><text class="cls-12" transform="translate(390.6 207.15) rotate(-104.43) scale(1.1 1)"><tspan x="0" y="0">Outl</tspan><tspan class="cls-46" x="41.04" y="0">e</tspan><tspan class="cls-38" x="53.29" y="0">t</tspan></text></g><text class="cls-16" transform="translate(501.49 533.4) rotate(-73.96)"><tspan x="0" y="0">S</tspan><tspan class="cls-41" x="11.1" y="0">h</tspan><tspan class="cls-34" x="21.68" y="0">t</tspan><tspan x="27.57" y="0">onak</tspan></text><g class="cls-14" transform="matrix(0.2763 -0.9611 0.9611 0.2763 229.2757 791.6128)"><text class="cls-20" transform="translate(367.55 698.83) rotate(-73.96)"><tspan class="cls-26" x="0" y="0">B</tspan><tspan class="cls-42" x="12.93" y="0">y</tspan><tspan class="cls-9" x="23.01" y="0"> </tspan><tspan x="27.39" y="0">Amina </tspan></text><text class="cls-20" transform="translate(387.79 704.98) rotate(-73.96)"><tspan x="0" y="0">Collection</tspan></text></g><path class="cls-37" d="M625.82,756.41l79.73-245.7-331.29-78.92v-46.86l272.71-56.46-4.88-84.61c102.84-25.71,205.51-51.58,308.34-77.29"/><path class="cls-6" d="M436.26,112.87c8.14,29.78,16.27,59.72,24.41,89.49,40.68-9.27,81.36-18.39,122.04-27.66-6.02-32.54-11.88-65.09-17.9-97.63-13.18-2.44-38.4-5.04-68.34,3.25-29.94,8.3-50.12,23.59-60.2,32.54Z"/><g class="cls-14" transform="matrix(-0.2529 -1.0664 0.973 -0.2307 313.7614 465.2545)"><text class="cls-22" transform="translate(505.02 167.79) rotate(-103.34) scale(1.1 1)"><tspan x="0" y="0">B</tspan><tspan class="cls-4" x="12.95" y="0">r</tspan><tspan class="cls-3" x="19.63" y="0">a</tspan><tspan class="cls-10" x="29.96" y="0">w</tspan><tspan class="cls-7" x="45.39" y="0">o</tspan></text><text class="cls-22" transform="translate(529.35 179.43) rotate(-103.34) scale(1.1 1)"><tspan x="0" y="0">men style</tspan></text></g><text class="cls-18" transform="translate(601.18 169.89) rotate(-101.69) scale(1.1 1)"><tspan x="0" y="0">Ama</tspan><tspan class="cls-45" x="25.85" y="0">r</tspan><tspan x="30" y="0">a parfume</tspan></text><path class="cls-37" d="M582.7,174.7c11.39-2.12,22.78-4.39,34.17-6.51-7.32-32.22-14.64-64.6-21.97-96.81-10.09,1.95-20.01,3.74-30.1,5.69"/><line class="cls-37" x1="594.9" y1="71.38" x2="717.59" y2="45.51"/><g><path class="cls-37" d="M116.2,561.15h-1.63c-1.3,0-2.44,1.14-2.44,2.44v9.11l7.48-7.48-.33-1.63c-.33-1.46-1.63-2.44-3.09-2.44Z"/><circle class="cls-37" cx="115.38" cy="557.9" r="3.25"/><path class="cls-37" d="M132.63,571.89h2.6c2.93,0,5.37-2.12,5.69-5.04,.33-3.42-2.28-6.51-5.69-6.51h-6.51c-.65,0-1.3,.33-1.79,.81l-18.55,18.55h-2.6c-2.93,0-5.37,2.12-5.69,5.04-.33,3.42,2.28,6.51,5.69,6.51h6.51c.65,0,1.3-.33,1.79-.81l18.55-18.55Z"/><path class="cls-37" d="M135.72,579.21h-5.04c-.33,0-.49,.16-.65,.33-.81,.98,0,2.12,.81,2.12h1.95l-4.56,4.56c-.16,.16-.33,.49-.33,.65,.16,.81,.65,1.14,1.3,1.14,.33,0,.65-.16,.81-.33l4.39-4.39v2.12c0,.33,.16,.49,.33,.65,.98,.81,2.12,0,2.12-.81v-4.72c.16-.81-.33-1.3-1.14-1.3h0Z"/></g><path class="cls-6" d="M208.46,369.96c-3.25,3.09-20.5,19.85-21.15,47.19-.65,29.29,18.06,47.68,21.15,50.44-16.27,5.37-32.54,10.9-48.81,16.27-5.04-3.91-26.36-21.48-30.92-52.07-6.18-42.14,25.06-70.94,27.66-73.22,17.41,3.74,34.66,7.65,52.07,11.39Z"/><g class="cls-14" transform="matrix(3.691226e-02 -0.9993 0.9993 3.691226e-02 100.9363 644.3177)"><text class="cls-21" transform="translate(158.73 459.16) rotate(-87.88)"><tspan x="0" y="0">SHR lux</tspan></text><text class="cls-21" transform="translate(175.79 442.37) rotate(-87.88)"><tspan x="0" y="0">sa</tspan><tspan class="cls-40" x="20.92" y="0">a</tspan><tspan x="31.88" y="0">t</tspan></text></g><g><path class="cls-44" d="M694.16,103.11l-49.79,9.76c-1.3,.16-2.44-.49-2.6-1.79l-4.56-23.11c-.16-1.3,.49-2.44,1.79-2.6l49.79-9.76c1.3-.16,2.44,.49,2.6,1.79l4.56,23.11c.16,1.14-.65,2.28-1.79,2.6Z"/><path class="cls-35" d="M688.79,75.45l-4.07,.81c1.3-.16,2.44,.49,2.6,1.79l4.56,23.11c.16,1.3-.49,2.44-1.79,2.6l4.07-.81c1.3-.16,1.95-1.46,1.79-2.6l-4.56-23.11c-.33-1.14-1.46-1.95-2.6-1.79h0Z"/><g><path class="cls-5" d="M692.53,100.83l-47.84,9.27c-.49,.16-.81-.16-.98-.65l-4.07-20.99c-.16-.49,.16-.81,.65-.98l47.84-9.27c.49-.16,.81,.16,.98,.65l4.07,20.99c.16,.49-.16,.98-.65,.98Zm-47.19,7.65l46.21-8.95-3.74-19.36-46.21,8.95,3.74,19.36Z"/><g><path class="cls-5" d="M664.06,89.6l1.79,9.6c0,.33,.33,.65,.81,.65s.98-.49,.81-.98l-1.79-9.6c-.16-.49-.49-.81-.98-.65h0c-.49,.16-.65,.65-.65,.98Z"/><path class="cls-5" d="M651.36,93.02c.49-.16,.81-.49,.65-.98,0-.49-.49-.81-.98-.65l-3.91,.81c-.49,.16-.65,.49-.65,.98l1.79,9.44c.16,.49,.49,.81,.98,.65l3.74-.81c.49-.16,.81-.49,.65-.98,0-.49-.49-.81-.98-.65l-3.09,.65-.65-3.09,2.77-.49c.49-.16,.81-.49,.65-.98,0-.49-.49-.81-.98-.65l-2.77,.49-.65-3.25,3.42-.49Z"/><path class="cls-5" d="M659.99,95.14l1.95-4.56c.16-.49,0-.98-.49-1.14s-.98,0-1.14,.49l-1.79,3.91-3.09-2.93c-.33-.33-.81-.33-1.14,0s-.33,.81,0,1.14l3.58,3.42-2.44,5.21c-.16,.49,0,.98,.49,1.14s.81,0,1.14-.49l2.12-4.72,3.74,3.58c.49,.33,.81,.33,1.14,0s.33-.81,0-1.14l-4.07-3.91Z"/><path class="cls-5" d="M673.17,87.16l-5.21,.98c-.49,0-.81,.49-.65,.98,.16,.49,.49,.81,.98,.65l1.79-.33,1.63,8.62c.16,.49,.49,.81,.98,.65s.81-.49,.65-.98l-1.63-8.62,1.79-.33c.49-.16,.81-.49,.65-.98,0-.49-.49-.81-.98-.65h0Z"/><path class="cls-5" d="M685.7,91.07c.16,0,.16-.16,0,0,.16-.49,.16-.81-.16-1.14l-3.91-2.6c-.33-.33-.81-.16-1.14,.16s-.16,.81,.16,1.14l2.28,1.46-6.18,1.14c-.49,.16-.81,.49-.65,.98,0,.49,.49,.81,.98,.65l6.18-1.14-1.46,2.28c-.33,.33-.16,.81,.16,1.14,.49,.16,.81,.16,1.14-.16l2.6-3.91Z"/></g></g></g></svg>